<?xml version="1.0" encoding="UTF-8"?>
<svg id="Layer_1" data-name="Layer 1" xmlns="http://www.w3.org/2000/svg" xmlns:xlink="http://www.w3.org/1999/xlink" viewBox="0 0 240.22 97.97">
  <defs>
    <style>
      .cls-1 {
        fill: url(#linear-gradient-8);
      }

      .cls-2 {
        fill: url(#linear-gradient-7);
      }

      .cls-3 {
        fill: url(#linear-gradient-5);
      }

      .cls-4 {
        fill: url(#linear-gradient-6);
      }

      .cls-5 {
        fill: url(#linear-gradient-9);
      }

      .cls-6 {
        fill: url(#linear-gradient-4);
      }

      .cls-7 {
        fill: url(#linear-gradient-3);
      }

      .cls-8 {
        fill: url(#linear-gradient-2);
      }

      .cls-9 {
        fill: url(#linear-gradient);
      }
    </style>
    <linearGradient id="linear-gradient" x1="-44.24" y1="84.43" x2="318.29" y2="-50.82" gradientUnits="userSpaceOnUse">
      <stop offset="0" stop-color="#f4774b"/>
      <stop offset="1" stop-color="#fedb97"/>
    </linearGradient>
    <linearGradient id="linear-gradient-2" x1="-38.55" y1="99.68" x2="323.98" y2="-35.58" xlink:href="#linear-gradient"/>
    <linearGradient id="linear-gradient-3" x1="-34.99" y1="109.22" x2="327.54" y2="-26.03" xlink:href="#linear-gradient"/>
    <linearGradient id="linear-gradient-4" x1="-30.02" y1="122.53" x2="332.5" y2="-12.73" xlink:href="#linear-gradient"/>
    <linearGradient id="linear-gradient-5" x1="-41.5" y1="91.77" x2="321.03" y2="-43.49" xlink:href="#linear-gradient"/>
    <linearGradient id="linear-gradient-6" x1="-42.55" y1="88.96" x2="319.98" y2="-46.29" xlink:href="#linear-gradient"/>
    <linearGradient id="linear-gradient-7" x1="-50.26" y1="68.28" x2="312.26" y2="-66.97" xlink:href="#linear-gradient"/>
    <linearGradient id="linear-gradient-8" x1="-33.52" y1="113.15" x2="329" y2="-22.1" xlink:href="#linear-gradient"/>
    <linearGradient id="linear-gradient-9" x1="-20.2" y1="148.86" x2="342.33" y2="13.61" xlink:href="#linear-gradient"/>
  </defs>
  <path class="cls-9" d="M21.97,52.98c-1.6-1.33-3.41-2.33-5.4-2.99-1.99-.65-3.99-.99-5.95-.99H2.72c-1.5,0-2.72,1.22-2.72,2.72v26.35c0,1.5,1.22,2.72,2.72,2.72h7.91c1.97,0,3.97-.33,5.95-.99,1.98-.65,3.8-1.66,5.4-2.99s2.91-3,3.89-4.96c.99-1.97,1.49-4.31,1.49-6.96s-.5-4.96-1.48-6.94c-.98-1.98-2.29-3.66-3.89-4.99ZM22.77,69.6c-.57,1.51-1.43,2.88-2.57,4.05-1.14,1.18-2.59,2.14-4.33,2.87-1.73.73-3.8,1.1-6.14,1.1h-5.13c-.59,0-1.07-.48-1.07-1.07v-23.29c0-.59.48-1.07,1.07-1.07h5.13c2.34,0,4.41.37,6.14,1.1,1.74.73,3.19,1.69,4.33,2.87s2,2.54,2.57,4.05c.57,1.51.86,3.09.86,4.69s-.29,3.18-.86,4.69Z"/>
  <path class="cls-8" d="M55.31,58.52c-.98-1.1-2.21-1.98-3.68-2.62-1.47-.65-3.17-.97-5.1-.97-1.75,0-3.38.32-4.89.97-1.51.65-2.82,1.55-3.94,2.7-1.12,1.16-2,2.52-2.63,4.09s-.95,3.29-.95,5.14.32,3.57.97,5.14c.65,1.57,1.53,2.94,2.65,4.09,1.12,1.15,2.46,2.06,4.02,2.7,1.56.65,3.25.97,5.07.97,2.03,0,3.93-.4,5.7-1.21,1.3-.59,2.51-1.46,3.65-2.61.69-.7.6-1.85-.17-2.45-.69-.54-1.66-.42-2.26.22-.58.62-1.29,1.2-2.11,1.72-1.35.86-2.95,1.29-4.81,1.29-1.26,0-2.44-.24-3.52-.71-1.09-.47-2.03-1.11-2.84-1.92-.81-.8-1.44-1.75-1.89-2.83-.45-1.08-.7-2.24-.74-3.46h20.4c.03-.32.05-.61.05-.89v-.79c0-1.68-.25-3.25-.76-4.72-.51-1.47-1.25-2.76-2.23-3.86ZM53.86,65.94h-15.1c-.48,0-.82-.44-.74-.91.13-.72.36-1.43.68-2.11.46-.96,1.07-1.82,1.84-2.57.77-.75,1.66-1.35,2.68-1.78,1.02-.44,2.12-.66,3.31-.66,2.56,0,4.53.76,5.91,2.28,1.22,1.34,1.94,2.98,2.17,4.93.05.44-.31.82-.75.82Z"/>
  <path class="cls-7" d="M84.46,58.52c-.98-1.1-2.21-1.98-3.68-2.62-1.47-.65-3.17-.97-5.1-.97-1.75,0-3.38.32-4.89.97-1.51.65-2.82,1.55-3.94,2.7-1.12,1.16-2,2.52-2.63,4.09-.63,1.57-.95,3.29-.95,5.14s.32,3.57.97,5.14c.65,1.57,1.53,2.94,2.65,4.09,1.12,1.15,2.46,2.06,4.02,2.7,1.56.65,3.25.97,5.07.97,2.03,0,3.93-.4,5.7-1.21,1.3-.59,2.51-1.46,3.65-2.61.69-.7.6-1.85-.17-2.45-.69-.54-1.66-.42-2.26.22-.58.62-1.29,1.2-2.11,1.72-1.35.86-2.95,1.29-4.81,1.29-1.26,0-2.44-.24-3.52-.71-1.09-.47-2.03-1.11-2.84-1.92-.81-.8-1.44-1.75-1.89-2.83-.45-1.08-.7-2.24-.74-3.46h20.4c.03-.32.05-.61.05-.89v-.79c0-1.68-.25-3.25-.76-4.72-.51-1.47-1.25-2.76-2.23-3.86ZM82.62,65.94h-14.29c-.69,0-1.23-.64-1.07-1.31.13-.58.33-1.15.59-1.7.46-.96,1.07-1.82,1.84-2.57.77-.75,1.66-1.35,2.68-1.78,1.02-.44,2.12-.66,3.31-.66,2.56,0,4.53.76,5.91,2.28,1.12,1.23,1.82,2.72,2.1,4.46.11.67-.4,1.28-1.08,1.28Z"/>
  <path class="cls-6" d="M121.77,55.59c-1.99,0-3.71.44-5.17,1.35-1.45.89-2.61,2.17-3.44,3.85-.43-1.05-.93-1.9-1.51-2.57-.58-.66-1.2-1.2-1.88-1.6s-1.39-.67-2.1-.81c-.73-.15-1.41-.22-2.09-.22-1.79,0-3.4.44-4.86,1.35-1.45.89-2.53,2.05-3.23,3.49v-.75c0-.97-.79-1.76-1.76-1.76s-1.76.79-1.76,1.76v19.33c0,.98.8,1.78,1.78,1.78s1.78-.8,1.78-1.78v-10.81c0-1.64.22-3.07.63-4.28.43-1.2.98-2.21,1.67-2.99.67-.79,1.45-1.37,2.3-1.76.86-.38,1.71-.58,2.56-.58,1.18,0,2.17.19,2.95.55.77.38,1.37.9,1.8,1.57.44.69.75,1.52.93,2.5.17.97.26,2.06.26,3.24v12.55c0,.98.8,1.78,1.78,1.78h.01c.98,0,1.78-.8,1.78-1.78v-11.28c0-1.16.12-2.27.36-3.36.24-1.08.65-2.05,1.18-2.91.55-.86,1.26-1.55,2.15-2.07.9-.52,1.99-.79,3.3-.79,2.3,0,3.94.79,4.91,2.37.96,1.57,1.44,3.66,1.44,6.24v11.81c0,.98.8,1.78,1.78,1.78h.01c.98,0,1.78-.8,1.78-1.78v-13.27c0-3.04-.78-5.49-2.34-7.35-1.56-1.86-3.9-2.79-7.02-2.79Z"/>
  <path class="cls-3" d="M88.15,43.65l-17.88.69c-1.04.04-1.87.9-1.87,1.94s.82,1.9,1.86,1.94l17.88.78c1.62.09,2.94-1.27,2.82-2.88-.11-1.44-1.35-2.54-2.8-2.47Z"/>
  <path class="cls-4" d="M111.8,40.77h6.7c3.33,0,6.43-1.15,8.73-3.25,3.54-3.22,4.77-7.89,3.31-12.49-1.15-3.63-4.23-6.56-8.02-7.64-3.38-.96-6.85-.63-9.79.94-.76.4-1.27,1.11-1.4,1.94-.14.84.13,1.69.74,2.31.88.9,2.3,1.11,3.46.51,1.1-.57,2.36-.84,3.64-.76,3.33.2,6.1,2.87,6.3,6.07.12,1.86-.55,3.62-1.9,4.95-1.26,1.25-3.11,1.97-5.06,1.97h-6.7c-1.56,0-2.83,1.22-2.83,2.73,0,.73.29,1.41.83,1.93s1.25.8,2,.8Z"/>
  <path class="cls-2" d="M3.2,40.68h95.48c1.8,0,3.44-.73,4.61-1.91.26-.26.5-.55.72-.85.76-1.06,1.2-2.36,1.2-3.77v-11.4c0-1.8-1.46-3.26-3.26-3.26s-3.26,1.46-3.26,3.26v12.45h-13.4c-.13,0-.27.01-.4.03h-51.69c2.62-3.48,3.44-7.99,2.07-12.48-.53-1.74-1.42-3.31-2.58-4.65-1.62-1.89-3.77-3.31-6.2-4.03-1.25-.37-2.5-.57-3.73-.6-2.91.07-5.74,1-8.05,2.72-.4.3-.78.62-1.15.96-3.83,3.62-5.25,8.94-3.63,14.22.41,1.35,1.04,2.6,1.84,3.72h-.63s-8.09,0-8.09,0c-.77,0-1.47.31-1.97.82-.66.64-.99,1.62-.74,2.64.3,1.28,1.55,2.12,2.86,2.12ZM17.04,21.41c1.51-1.54,3.6-2.37,5.75-2.45.01,0,.03,0,.04,0,4.01.25,7.35,3.59,7.59,7.59.15,2.32-.67,4.54-2.28,6.2-1.41,1.45-3.33,2.26-5.34,2.42h-.7c-3.9-.38-7.11-3.64-7.35-7.57-.15-2.32.67-4.53,2.28-6.2Z"/>
  <path class="cls-1" d="M170.11,59.11h-6.88c-5.32,0-9.64-4.32-9.64-9.64v-.96c0-5.32,4.32-9.64,9.64-9.64h29.42c5.07,0,10.03-1.82,13.71-5.32,5.39-5.12,7.4-12.61,5.19-20.08-1.77-5.97-6.44-10.71-12.39-12.53-7.15-2.19-14.34-.5-19.47,4.33-3.85,3.62-6.08,8.7-6.13,13.98-.02,1.91,1.26,3.66,3.13,4.02,2.5.48,4.68-1.42,4.68-3.83,0-3.24,1.3-6.25,3.66-8.47,2.36-2.22,5.45-3.32,8.7-3.13,5.73.36,10.49,5.12,10.85,10.85.21,3.45-1.05,6.71-3.54,9.12-2.22,2.15-5.26,3.25-8.36,3.25h-29.47c-9.64,0-17.46,7.82-17.46,17.46v.96c0,9.64,7.82,17.46,17.46,17.46h6.7c2.15,0,4.03-1.66,4.09-3.81.06-2.21-1.71-4.01-3.91-4.01Z"/>
  <path class="cls-5" d="M222.78,31.04h-6.75c-2,0-3.79,1.44-4.03,3.42-.29,2.38,1.56,4.4,3.88,4.4h6.9c5.31,0,9.62,4.31,9.62,9.62v1c0,5.31-4.31,9.62-9.62,9.62h-29.78c-5.34,0-10.5,2.23-14.16,6.13-4.06,4.32-5.91,10.11-5.08,16.1,1.31,9.47,9.57,16.58,19.13,16.65.04,0,.09,0,.13,0,4.97,0,9.64-1.85,13.29-5.27,3.85-3.62,6.08-8.71,6.13-13.99.02-1.9-1.26-3.64-3.12-4-2.51-.49-4.7,1.41-4.7,3.83,0,3.24-1.3,6.25-3.66,8.47-2.36,2.22-5.45,3.32-8.7,3.13-5.73-.36-10.49-5.12-10.85-10.85-.23-3.67,1.21-7.13,4.03-9.57,2.16-1.87,4.97-2.79,7.82-2.79h29.52c9.63,0,17.44-7.81,17.44-17.44v-1c0-9.63-7.81-17.44-17.44-17.44Z"/>
</svg>