<?xml version="1.0" encoding="UTF-8"?> <svg xmlns="http://www.w3.org/2000/svg" xmlns:xlink="http://www.w3.org/1999/xlink" id="Layer_1" version="1.1" viewBox="0 0 1217.9 719.8"><defs><style> .st0 { fill: url(#linear-gradient2); } .st1 { fill: url(#linear-gradient1); } .st2 { fill: url(#linear-gradient3); } .st3 { fill: url(#linear-gradient6); } .st4 { fill: url(#linear-gradient7); } .st5 { fill: url(#linear-gradient5); } .st6 { fill: url(#linear-gradient4); } .st7 { fill: url(#linear-gradient); } .st8 { fill: #01012a; } .st9 { fill: #fff; } </style><linearGradient id="linear-gradient" x1="536" y1="548.2" x2="1131.5" y2="218.3" gradientTransform="translate(45.8 -49.3) rotate(1)" gradientUnits="userSpaceOnUse"><stop offset="0" stop-color="#7fffff"></stop><stop offset=".5" stop-color="#42acfd"></stop><stop offset="1" stop-color="#1249ff"></stop></linearGradient><linearGradient id="linear-gradient1" x1="375" y1="250.9" x2="970.5" y2="-79.1" gradientTransform="translate(127 123.4) rotate(-.4)" xlink:href="#linear-gradient"></linearGradient><linearGradient id="linear-gradient2" x1="780.4" y1="954.3" x2="1375.9" y2="624.4" gradientTransform="translate(-81.7 -359.6) rotate(3.3)" xlink:href="#linear-gradient"></linearGradient><linearGradient id="linear-gradient3" x1="542.7" y1="558.9" x2="1141.1" y2="227.3" xlink:href="#linear-gradient"></linearGradient><linearGradient id="linear-gradient4" x1="-732.6" y1="569.4" x2="-137.1" y2="239.4" xlink:href="#linear-gradient"></linearGradient><linearGradient id="linear-gradient5" x1="-893.7" y1="242.4" x2="-298.2" y2="-87.5" gradientTransform="translate(127 123.4) rotate(-.4)" xlink:href="#linear-gradient"></linearGradient><linearGradient id="linear-gradient6" x1="-486.3" y1="1026.5" x2="109.2" y2="696.6" gradientTransform="translate(-81.7 -359.6) rotate(3.3)" xlink:href="#linear-gradient"></linearGradient><linearGradient id="linear-gradient7" x1="-725.8" y1="580" x2="-127.4" y2="248.5" xlink:href="#linear-gradient"></linearGradient></defs><g><path class="st7" d="M981.4,343.3l108.8-66.2c20.5-12.5,27-39.2,14.6-59.7-12.5-20.5-39.2-27-59.7-14.6l-108.8,66.2c-20.5,12.5-27,39.2-14.6,59.7,12.5,20.5,39.2,27,59.7,14.6Z"></path><path class="st1" d="M815.7,224.8c.2,24,19.7,43.3,43.8,43.2,8.5,0,16.4-2.6,23.1-6.8,12.2-7.8,20.2-21.4,20.1-36.9l-.7-105.1c-.2-24-19.7-43.3-43.8-43.2-24,.2-43.3,19.8-43.2,43.8l.7,105.1Z"></path><path class="st0" d="M1094.9,440.7l-93.3-52.1c-21-11.7-47.4-4.2-59.1,16.8-11.7,21-4.2,47.4,16.8,59.1l93.3,52.1c13.6,7.6,29.6,7.1,42.3,0,6.9-3.8,12.8-9.5,16.9-16.8,11.7-21,4.2-47.4-16.8-59.1Z"></path><path class="st2" d="M901.3,338.7l-231.7-132.9c-20.8-12-47.4-4.8-59.3,16-12,20.8-4.8,47.4,16,59.3l145.7,84.5c-1.2.6-2.3,1.2-3.5,1.9l-139.8,85c-20.1,12.2-27.8,38.3-16.3,58.9,12.1,21.6,39.5,28.7,60.5,15.9l140.7-85.5c.8-.5,1.5-1,2.2-1.5l.5,167.1c.8,24,23.7,42.8,47.6,42,7.7-.3,14.9-2.5,21.1-6.3,13-7.9,19.6-22.4,19.1-38.6l-2.9-265.8Z"></path></g><g><path class="st9" d="M516.7,136.7c-15.9,0-27.8,10.9-27.8,27.2s2.2,12.6,5.5,17.1h-32c3.9-25.9-6.2-44.3-32.8-44.3s-11.5.8-17.8,3.1l2.3,9c5.2-1.5,9.2-2.3,13.8-2.3,25.9,0,26.8,23.6,24.4,34.5h-105.2c-11.1,0-16.8-4.9-16.8-14.7v-46.6h-10.1v44.1c0,12.9-2.6,17.1-14.7,17.1h-73.7c-11.1,0-16.8-4.9-16.8-14.7v-28.2h-10.1v25.7c0,12.4-3.6,17.1-13.2,17.1s-13.2-3-13.2-10.7v-22.8h-10.1v17.4c0,13-5.2,16.1-13.4,16.1s-12.5-1.8-12.5-10.6v-22.9h-10.1v30.5c0,17.1-9.7,23.8-24.9,23.8s-24.6-6.6-24.6-21.5,1.2-11.2,4.1-18.5l-9-3.1c-3.7,8.8-5.4,16.5-5.4,22.9,0,17,11.3,30,34.6,30s32.1-8.4,34.8-24.5c3.1,2.6,7.9,3.7,13.2,3.7,9.3,0,15.5-3.1,19.1-8.2,3.1,4.9,9.3,7.9,17.5,7.9s15.5-3.1,19.3-8.6c3.6,5.4,10.2,8.6,20.5,8.6h0s6.7,0,6.7,0h67c10.1,0,17.3-2.6,21.1-8.4,3.6,5.3,10.2,8.4,20.4,8.4h0s6.7,0,6.7,0h158.6c22.3,0,29.8-12.6,29.8-26.6s-9-27.2-25.5-27.2ZM513.5,181h0c-5.6,0-10.7-3.3-12.7-8.5-1-2.5-1.6-5.4-1.6-8.8,0-11.2,7.1-17.2,16.5-17.2s16.2,6.7,16.2,17.2-4.5,17.2-18.4,17.2Z"></path><path class="st9" d="M439.3,208.1c0-3.7-2.4-6.4-6.2-6.4s-6.4,2.7-6.4,6.4,2.6,6.3,6.4,6.3,6.2-2.7,6.2-6.3Z"></path><path class="st9" d="M122,276.1c0-3.6-2.6-6.3-6.3-6.3s-6.3,2.7-6.3,6.3,2.7,6.4,6.3,6.4,6.3-2.7,6.3-6.4Z"></path><path class="st9" d="M140,276.1c0-3.6-2.6-6.3-6.2-6.3s-6.4,2.7-6.4,6.3,2.7,6.4,6.4,6.4,6.2-2.7,6.2-6.4Z"></path><path class="st9" d="M75.9,293.2c-1.9,5.3-4.1,13.1-4.1,20.2,0,14.8,11.1,24.3,29.3,24.3h53.1c16.5,0,25.1-9.7,25.1-22.3v-30.1h-10.1v25.7c0,12.6-5.3,17.1-16.2,17.1h-50.5c-13.2,0-20.4-5.3-20.4-16.6s1.2-9,3.1-16l-9.3-2.4Z"></path><path class="st9" d="M226.1,355.4c0,3.6,2.7,6.3,6.3,6.3s6.3-2.7,6.3-6.3-2.6-6.4-6.3-6.4-6.3,2.7-6.3,6.4Z"></path><path class="st9" d="M244.2,355.4c0,3.6,2.7,6.3,6.4,6.3s6.2-2.7,6.2-6.3-2.6-6.4-6.2-6.4-6.4,2.7-6.4,6.4Z"></path><path class="st9" d="M500.4,240.4v70.7c0,12.9-2.6,17.1-14.7,17.1h-15.5c3.9-25.9-6.2-44.3-32.8-44.3s-11.5.8-17.8,3.1l2.3,9c5.2-1.5,9.2-2.3,13.8-2.3,25.9,0,26.8,23.6,24.4,34.5h-57.1c1.4-3.6,2.1-7.5,2.1-11.6,0-13.4-6.6-27.2-25.3-27.2s-28.1,10.8-28.1,27,.8,8.1,2.2,11.7h-22.4c-4.8,0-11.7-.5-17.7-1.7,9.2-5.9,15.5-13.6,15.5-23.2s-10-19.2-25.1-19.2-22.4,5.2-27.7,8.5c-1,2.6-1.8,7.2-2.2,10.8,6.7,7.7,13.4,14.4,19.1,22.3-5.6,1.5-12,2.4-22.1,2.4h-6.2c-11.1,0-16.8-4.9-16.8-14.7v-28.2h-10v25.7c0,12.2-4,17.1-14.5,17.1h-.9c-11.1,0-16.6-4.4-16.6-13.6v-74.1h-10v74.8c0,15.1,8,22.5,26.7,22.5h.6c9.8,0,16.8-2.8,20.9-8.9,3.5,5.7,10.2,8.9,20.6,8.9h5.2c13.4,0,22.3-1.2,31.3-4.8,8.9,3.2,21.7,4.8,30.7,4.8h27.2c2.4,2.9,7.5,4.7,10.3,5.8,2.1.8,4.3,1.1,6.6,1.1h0c2.8,0,5.4-.2,7.7-.6,0,0,0,0,.2,0,7-1.7,10.4-5.2,11.7-6,0,0,.1,0,.2-.2,0,0,0,0,0,0h89.5c8,0,14.2-1.6,18.4-5.2,4.2-3.6,6.4-9.2,6.4-17v-75h-10.1ZM282.7,299.7v-.6c6.4-3.3,13-5.1,19.5-5.1,11.5,0,16.9,5.3,16.9,10.9s-6.2,12.2-15.7,17c-7.2-9.3-14.4-17.1-20.6-22.1ZM376.4,335c-2.7,0-5.3-.8-7.5-2.2-2.2-1.4-4-3.4-5-5.9-1.3-3.2-2-6.5-2-10.2,0-11.6,7.2-17.8,17.3-17.8s16,6.4,16,16.8-6.6,19.2-18.7,19.2Z"></path><path class="st9" d="M434.2,355.4c0,3.6,2.6,6.3,6.4,6.3s6.2-2.7,6.2-6.3-2.4-6.4-6.2-6.4-6.4,2.7-6.4,6.4Z"></path><rect class="st9" x="529.6" y="240.4" width="10.1" height="97.3"></rect><path class="st9" d="M109.7,411.3c0,3.7,2.7,6.4,6.4,6.4s6.2-2.7,6.2-6.4-2.6-6.3-6.2-6.3-6.4,2.7-6.4,6.3Z"></path><path class="st9" d="M91.7,411.3c0,3.7,2.7,6.4,6.3,6.4s6.3-2.7,6.3-6.4-2.6-6.3-6.3-6.3-6.3,2.7-6.3,6.3Z"></path><path class="st9" d="M205.9,502.7c0-3.7-2.6-6.4-6.3-6.4s-6.3,2.7-6.3,6.4,2.7,6.3,6.3,6.3,6.3-2.7,6.3-6.3Z"></path><path class="st9" d="M224,502.7c0-3.7-2.6-6.4-6.2-6.4s-6.4,2.7-6.4,6.4,2.7,6.3,6.4,6.3,6.2-2.7,6.2-6.3Z"></path><path class="st9" d="M426.6,485c1.2-5.1,1.7-9.8,1.7-14,0-28.3-25.5-38.9-63.4-41.4l-1.7,8.8c4,.1,8,.4,11.7.6-6.4,4-10.1,11.5-10.1,18.7s3.4,13.9,7.7,17.6c-2.1.3-4.1.3-5.8.3h-93.2c-11.1,0-16.8-4.9-16.8-14.7v-61h-10.1v58.6c0,12.9-2.6,17.1-14.7,17.1s-16.8-4.9-16.8-14.7v-28.2h-10.1v25.7c0,12.2-4,17.1-14.4,17.1h-47.8c-10.3,0-13.9-2.6-13.9-13v-29.9h-21.8c-19.3,0-30.7,10.9-30.7,26.6s11.1,23,27.1,23,12.5-1.5,17.7-4c2.8,4.6,9.7,6.7,21.7,6.7h47.6c9.8,0,16.8-2.8,20.9-8.9,3.5,5.7,10.2,8.9,20.6,8.9h0c10.1,0,17.3-2.6,21.1-8.4,3.6,5.3,10.2,8.4,20.4,8.4h93.2c6.1,0,13-.8,17.8-2.4,5.2,1.8,11,2.4,17.5,2.4h24.5ZM118.5,469.3c-3.2,1.9-8,3.2-13.9,3.2-11.1,0-17.7-4.6-17.7-14.4s7.9-16,18.4-16h13.2v27.2ZM384.6,473.4c-5.8-2.7-10.7-8-10.7-16.2s4.6-13.8,11.2-13.8,11.3,5.7,11.3,13.9-5.4,13.8-11.9,16.1ZM405.5,457.4c0-4.1-1.2-8.4-3.5-12,10.4,4.9,16.9,12.6,16.9,24.6s-.1,3.9-.4,5.5h-21.8c5-4,8.8-10.6,8.8-18.1Z"></path><path class="st9" d="M460.5,404.7h20.9v-5h-11.1c-1.2-1.9-1.8-3.9-1.8-5.5,0-3.6,2.8-5.3,6.6-5.3s3.1.3,4.3.5l.9-4.9c-1.8-.4-4-.8-6.2-.8-6.3,0-10.8,3.7-10.8,9.7s.6,4.2,1.8,6.3h-4.5v5Z"></path><path class="st9" d="M510.3,461.2v-73.5h-10.1v70.7c0,12.6-5.3,17.1-16.2,17.1h-8.4v-61.3h-10.1v61.3h-26.9v9.5h46.5c16.5,0,25.1-9,25.1-23.8Z"></path><rect class="st9" x="529.6" y="387.7" width="10.1" height="97.3"></rect></g><g><path class="st9" d="M115.4,587.7c-3.4,4.3-8,6.5-13.6,6.5-10.2,0-17.9-8.4-17.9-19.5s7.9-19.5,17.9-19.5,8.9,2.1,11.7,5.7l.3.4,5.9-4.3-.4-.5c-3.7-5-10.1-7.8-17.6-7.8-14.4,0-25.2,11.2-25.2,26s10.8,26,25.2,26,14.4-2.9,18.8-8.7l.3-.4-5.2-4.3-.4.5Z"></path><path class="st9" d="M141.2,565.6c-10.2,0-17.7,7.3-17.7,17.4s7.4,17.4,17.7,17.4,17.7-7.3,17.7-17.4-7.4-17.4-17.7-17.4ZM141.2,594.3c-6.4,0-10.8-4.7-10.8-11.3s4.5-11.3,10.7-11.3,10.9,4.7,10.9,11.3-4.4,11.3-10.8,11.3Z"></path><path class="st9" d="M193.7,591.9v-25.4h-6.5v16.4c0,4.3-1.2,11.5-9.4,11.5s-6.8-5-6.8-7.9v-20h-6.5v20.6c0,8.4,4.7,13.3,12.7,13.3s8.2-1.9,10.3-4.8c0,.3,0,.5,0,.8,0,.8,0,1.6,0,2.7v.6h6.2v-.6c0-.8,0-2.1-.1-3.3,0-1.4-.1-2.8-.1-3.8Z"></path><path class="st9" d="M217.8,565.6c-4.2,0-8.1,1.9-10.3,4.9,0-.3,0-.6,0-1,0-.8,0-1.6,0-2.5v-.6h-6.2v.6c0,.9,0,2.2.1,3.4,0,1.3.1,2.6.1,3.7v25.4h6.5v-16.2c0-7.5,3.3-11.7,9.4-11.7s6.8,5,6.8,7.9v20h6.5v-20.6c0-8.5-4.6-13.3-12.8-13.3Z"></path><path class="st9" d="M253.5,571.7c3.1,0,5.6,1.2,7.6,3.7l.4.5,5.1-4.5-.4-.4c-3.2-3.4-7.5-5.2-12.7-5.2-10.1,0-17.2,7.1-17.2,17.4s7,17.4,17.1,17.4,9.5-1.8,12.5-5.3l.4-.4-4.8-4.6-.4.5c-1.8,2.5-4.3,3.7-7.7,3.7-5.9,0-10.2-4.8-10.2-11.3s4-11.3,10.2-11.3Z"></path><rect class="st9" x="270.4" y="566.4" width="6.5" height="33.1"></rect><path class="st9" d="M273.6,550c-2.5,0-4.5,2-4.5,4.5s1.9,4.5,4.5,4.5,4.5-1.9,4.5-4.5-2-4.5-4.5-4.5Z"></path><rect class="st9" x="285.5" y="546.7" width="6.5" height="52.8"></rect><path class="st9" d="M331.4,548.8c-15,0-25.9,10.9-25.9,26s10.9,26,25.9,26,25.9-10.9,25.9-26-10.9-26-25.9-26ZM331.4,594.3c-10.6,0-18.6-8.4-18.6-19.5s8-19.5,18.5-19.5,18.7,8.4,18.7,19.5-8,19.5-18.6,19.5Z"></path><path class="st9" d="M380.9,545.9c-7.9,0-11.9,4.7-11.9,13.8v6.7h-7v5.7h7v27.5h6.5v-27.5h7.8v-5.7h-7.8v-6.6c0-6.6,1.7-7.8,5.2-7.8s2.1.2,3.4.6l.7.2.9-5.9-.4-.2c-1.2-.7-3.1-.9-4.4-.9Z"></path><path class="st9" d="M438,587.7c-3.4,4.3-8,6.5-13.6,6.5-10.2,0-17.9-8.4-17.9-19.5s7.9-19.5,17.9-19.5,8.9,2.1,11.7,5.7l.3.4,5.9-4.3-.4-.5c-3.7-5-10.1-7.8-17.6-7.8-14.4,0-25.2,11.2-25.2,26s10.8,26,25.2,26,14.4-2.9,18.8-8.7l.3-.4-5.2-4.3-.4.5Z"></path><path class="st9" d="M469.9,571.2c-7.6-2.3-10-4.3-10-8.4s3.8-7.6,9.8-7.6,6.7,1.5,8.3,4.2l.4.6,5.7-4.9-.4-.4c-3.5-4-7.9-5.9-14-5.9-10,0-17.1,6-17.1,14.5s3.4,10.8,11.7,13.7c1,.4,2,.7,3,1,6.4,2.1,10,3.3,10,8.5s-5.1,7.8-10,7.8-7.9-1.9-9.8-5.1l-.3-.6-5.8,4.8.3.4c2.9,4.4,8.7,6.9,15.4,6.9,10.5,0,17.6-5.9,17.6-14.7s-4-11.7-14.7-14.8Z"></path><path class="st9" d="M518.5,550.4v-.3h-6.3l-21.9,49.5h7.8l5-11.9h23.5l4.9,11.9h8l-20.9-49.2ZM523.9,581.2h-18.1l9.3-21.9,8.8,21.9Z"></path></g><g><path class="st6" d="M-287.3,343.3l108.8-66.2c20.5-12.5,27-39.2,14.6-59.7-12.5-20.5-39.2-27-59.7-14.6l-108.8,66.2c-20.5,12.5-27,39.2-14.6,59.7,12.5,20.5,39.2,27,59.7,14.6Z"></path><path class="st5" d="M-453.1,224.8c.2,24,19.7,43.3,43.8,43.2,8.5,0,16.4-2.6,23.1-6.8,12.2-7.8,20.2-21.4,20.1-36.9l-.7-105.1c-.2-24-19.7-43.3-43.8-43.2-24,.2-43.3,19.8-43.2,43.8l.7,105.1Z"></path><path class="st3" d="M-173.8,440.7l-93.3-52.1c-21-11.7-47.4-4.2-59.1,16.8-11.7,21-4.2,47.4,16.8,59.1l93.3,52.1c13.6,7.6,29.6,7.1,42.3,0,6.9-3.8,12.8-9.5,16.9-16.8,11.7-21,4.2-47.4-16.8-59.1Z"></path><path class="st4" d="M-367.4,338.7l-231.7-132.9c-20.8-12-47.4-4.8-59.3,16-12,20.8-4.8,47.4,16,59.3l145.7,84.5c-1.2.6-2.3,1.2-3.5,1.9l-139.8,85c-20.1,12.2-27.8,38.3-16.3,58.9,12.1,21.6,39.5,28.7,60.5,15.9l140.7-85.5c.8-.5,1.5-1,2.2-1.5l.5,167.1c.8,24,23.7,42.8,47.6,42,7.7-.3,14.9-2.5,21.1-6.3,13-7.9,19.6-22.4,19.1-38.6l-2.9-265.8Z"></path></g><g><path class="st8" d="M-752,136.7c-15.9,0-27.8,10.9-27.8,27.2s2.2,12.6,5.5,17.1h-32c3.9-25.9-6.2-44.3-32.8-44.3s-11.5.8-17.8,3.1l2.3,9c5.2-1.5,9.2-2.3,13.8-2.3,25.9,0,26.8,23.6,24.4,34.5h-105.2c-11.1,0-16.8-4.9-16.8-14.7v-46.6h-10.1v44.1c0,12.9-2.6,17.1-14.7,17.1h-73.7c-11.1,0-16.8-4.9-16.8-14.7v-28.2h-10.1v25.7c0,12.4-3.6,17.1-13.2,17.1s-13.2-3-13.2-10.7v-22.8h-10.1v17.4c0,13-5.2,16.1-13.4,16.1s-12.5-1.8-12.5-10.6v-22.9h-10.1v30.5c0,17.1-9.7,23.8-24.9,23.8s-24.6-6.6-24.6-21.5,1.2-11.2,4.1-18.5l-9-3.1c-3.7,8.8-5.4,16.5-5.4,22.9,0,17,11.3,30,34.6,30s32.1-8.4,34.8-24.5c3.1,2.6,7.9,3.7,13.2,3.7,9.3,0,15.5-3.1,19.1-8.2,3.1,4.9,9.3,7.9,17.5,7.9s15.5-3.1,19.3-8.6c3.6,5.4,10.2,8.6,20.5,8.6h0s6.7,0,6.7,0h67c10.1,0,17.3-2.6,21.1-8.4,3.6,5.3,10.2,8.4,20.4,8.4h0s6.7,0,6.7,0h158.6c22.3,0,29.8-12.6,29.8-26.6s-9-27.2-25.5-27.2ZM-755.2,181h0c-5.6,0-10.7-3.3-12.7-8.5-1-2.5-1.6-5.4-1.6-8.8,0-11.2,7.1-17.2,16.5-17.2s16.2,6.7,16.2,17.2-4.5,17.2-18.4,17.2Z"></path><path class="st8" d="M-829.5,208.1c0-3.7-2.4-6.4-6.2-6.4s-6.4,2.7-6.4,6.4,2.6,6.3,6.4,6.3,6.2-2.7,6.2-6.3Z"></path><path class="st8" d="M-1146.8,276.1c0-3.6-2.6-6.3-6.3-6.3s-6.3,2.7-6.3,6.3,2.7,6.4,6.3,6.4,6.3-2.7,6.3-6.4Z"></path><path class="st8" d="M-1128.7,276.1c0-3.6-2.6-6.3-6.2-6.3s-6.4,2.7-6.4,6.3,2.7,6.4,6.4,6.4,6.2-2.7,6.2-6.4Z"></path><path class="st8" d="M-1192.8,293.2c-1.9,5.3-4.1,13.1-4.1,20.2,0,14.8,11.1,24.3,29.3,24.3h53.1c16.5,0,25.1-9.7,25.1-22.3v-30.1h-10.1v25.7c0,12.6-5.3,17.1-16.2,17.1h-50.5c-13.2,0-20.4-5.3-20.4-16.6s1.2-9,3.1-16l-9.3-2.4Z"></path><path class="st8" d="M-1042.6,355.4c0,3.6,2.7,6.3,6.3,6.3s6.3-2.7,6.3-6.3-2.6-6.4-6.3-6.4-6.3,2.7-6.3,6.4Z"></path><path class="st8" d="M-1024.6,355.4c0,3.6,2.7,6.3,6.4,6.3s6.2-2.7,6.2-6.3-2.6-6.4-6.2-6.4-6.4,2.7-6.4,6.4Z"></path><path class="st8" d="M-768.3,240.4v70.7c0,12.9-2.6,17.1-14.7,17.1h-15.5c3.9-25.9-6.2-44.3-32.8-44.3s-11.5.8-17.8,3.1l2.3,9c5.2-1.5,9.2-2.3,13.8-2.3,25.9,0,26.8,23.6,24.4,34.5h-57.1c1.4-3.6,2.1-7.5,2.1-11.6,0-13.4-6.6-27.2-25.3-27.2s-28.1,10.8-28.1,27,.8,8.1,2.2,11.7h-22.4c-4.8,0-11.7-.5-17.7-1.7,9.2-5.9,15.5-13.6,15.5-23.2s-10-19.2-25.1-19.2-22.4,5.2-27.7,8.5c-1,2.6-1.8,7.2-2.2,10.8,6.7,7.7,13.4,14.4,19.1,22.3-5.6,1.5-12,2.4-22.1,2.4h-6.2c-11.1,0-16.8-4.9-16.8-14.7v-28.2h-10v25.7c0,12.2-4,17.1-14.5,17.1h-.9c-11.1,0-16.6-4.4-16.6-13.6v-74.1h-10v74.8c0,15.1,8,22.5,26.7,22.5h.6c9.8,0,16.8-2.8,20.9-8.9,3.5,5.7,10.2,8.9,20.6,8.9h5.2c13.4,0,22.3-1.2,31.3-4.8,8.9,3.2,21.7,4.8,30.7,4.8h27.2c2.4,2.9,7.5,4.7,10.3,5.8,2.1.8,4.3,1.1,6.6,1.1h0c2.8,0,5.4-.2,7.7-.6,0,0,0,0,.2,0,7-1.7,10.4-5.2,11.7-6,0,0,.1,0,.2-.2,0,0,0,0,0,0h89.5c8,0,14.2-1.6,18.4-5.2,4.2-3.6,6.4-9.2,6.4-17v-75h-10.1ZM-986.1,299.7v-.6c6.4-3.3,13-5.1,19.5-5.1,11.5,0,16.9,5.3,16.9,10.9s-6.2,12.2-15.7,17c-7.2-9.3-14.4-17.1-20.6-22.1ZM-892.4,335c-2.7,0-5.3-.8-7.5-2.2-2.2-1.4-4-3.4-5-5.9-1.3-3.2-2-6.5-2-10.2,0-11.6,7.2-17.8,17.3-17.8s16,6.4,16,16.8-6.6,19.2-18.7,19.2Z"></path><path class="st8" d="M-834.5,355.4c0,3.6,2.6,6.3,6.4,6.3s6.2-2.7,6.2-6.3-2.4-6.4-6.2-6.4-6.4,2.7-6.4,6.4Z"></path><rect class="st8" x="-739.1" y="240.4" width="10.1" height="97.3"></rect><path class="st8" d="M-1159,411.3c0,3.7,2.7,6.4,6.4,6.4s6.2-2.7,6.2-6.4-2.6-6.3-6.2-6.3-6.4,2.7-6.4,6.3Z"></path><path class="st8" d="M-1177.1,411.3c0,3.7,2.7,6.4,6.3,6.4s6.3-2.7,6.3-6.4-2.6-6.3-6.3-6.3-6.3,2.7-6.3,6.3Z"></path><path class="st8" d="M-1062.8,502.7c0-3.7-2.6-6.4-6.3-6.4s-6.3,2.7-6.3,6.4,2.7,6.3,6.3,6.3,6.3-2.7,6.3-6.3Z"></path><path class="st8" d="M-1044.8,502.7c0-3.7-2.6-6.4-6.2-6.4s-6.4,2.7-6.4,6.4,2.7,6.3,6.4,6.3,6.2-2.7,6.2-6.3Z"></path><path class="st8" d="M-842.1,485c1.2-5.1,1.7-9.8,1.7-14,0-28.3-25.5-38.9-63.4-41.4l-1.7,8.8c4,.1,8,.4,11.7.6-6.4,4-10.1,11.5-10.1,18.7s3.4,13.9,7.7,17.6c-2.1.3-4.1.3-5.8.3h-93.2c-11.1,0-16.8-4.9-16.8-14.7v-61h-10.1v58.6c0,12.9-2.6,17.1-14.7,17.1s-16.8-4.9-16.8-14.7v-28.2h-10.1v25.7c0,12.2-4,17.1-14.4,17.1h-47.8c-10.3,0-13.9-2.6-13.9-13v-29.9h-21.8c-19.3,0-30.7,10.9-30.7,26.6s11.1,23,27.1,23,12.5-1.5,17.7-4c2.8,4.6,9.7,6.7,21.7,6.7h47.6c9.8,0,16.8-2.8,20.9-8.9,3.5,5.7,10.2,8.9,20.6,8.9h0c10.1,0,17.3-2.6,21.1-8.4,3.6,5.3,10.2,8.4,20.4,8.4h93.2c6.1,0,13-.8,17.8-2.4,5.2,1.8,11,2.4,17.5,2.4h24.5ZM-1150.3,469.3c-3.2,1.9-8,3.2-13.9,3.2-11.1,0-17.7-4.6-17.7-14.4s7.9-16,18.4-16h13.2v27.2ZM-884.2,473.4c-5.8-2.7-10.7-8-10.7-16.2s4.6-13.8,11.2-13.8,11.3,5.7,11.3,13.9-5.4,13.8-11.9,16.1ZM-863.3,457.4c0-4.1-1.2-8.4-3.5-12,10.4,4.9,16.9,12.6,16.9,24.6s-.1,3.9-.4,5.5h-21.8c5-4,8.8-10.6,8.8-18.1Z"></path><path class="st8" d="M-808.2,404.7h20.9v-5h-11.1c-1.2-1.9-1.8-3.9-1.8-5.5,0-3.6,2.8-5.3,6.6-5.3s3.1.3,4.3.5l.9-4.9c-1.8-.4-4-.8-6.2-.8-6.3,0-10.8,3.7-10.8,9.7s.6,4.2,1.8,6.3h-4.5v5Z"></path><path class="st8" d="M-758.5,461.2v-73.5h-10.1v70.7c0,12.6-5.3,17.1-16.2,17.1h-8.4v-61.3h-10.1v61.3h-26.9v9.5h46.5c16.5,0,25.1-9,25.1-23.8Z"></path><rect class="st8" x="-739.1" y="387.7" width="10.1" height="97.3"></rect></g><g><path class="st8" d="M-1153.4,587.7c-3.4,4.3-8,6.5-13.6,6.5-10.2,0-17.9-8.4-17.9-19.5s7.9-19.5,17.9-19.5,8.9,2.1,11.7,5.7l.3.4,5.9-4.3-.4-.5c-3.7-5-10.1-7.8-17.6-7.8-14.4,0-25.2,11.2-25.2,26s10.8,26,25.2,26,14.4-2.9,18.8-8.7l.3-.4-5.2-4.3-.4.5Z"></path><path class="st8" d="M-1127.6,565.6c-10.2,0-17.7,7.3-17.7,17.4s7.4,17.4,17.7,17.4,17.7-7.3,17.7-17.4-7.4-17.4-17.7-17.4ZM-1127.6,594.3c-6.4,0-10.8-4.7-10.8-11.3s4.5-11.3,10.7-11.3,10.9,4.7,10.9,11.3-4.4,11.3-10.8,11.3Z"></path><path class="st8" d="M-1075,591.9v-25.4h-6.5v16.4c0,4.3-1.2,11.5-9.4,11.5s-6.8-5-6.8-7.9v-20h-6.5v20.6c0,8.4,4.7,13.3,12.7,13.3s8.2-1.9,10.3-4.8c0,.3,0,.5,0,.8,0,.8,0,1.6,0,2.7v.6h6.2v-.6c0-.8,0-2.1-.1-3.3,0-1.4-.1-2.8-.1-3.8Z"></path><path class="st8" d="M-1051,565.6c-4.2,0-8.1,1.9-10.3,4.9,0-.3,0-.6,0-1,0-.8,0-1.6,0-2.5v-.6h-6.2v.6c0,.9,0,2.2.1,3.4,0,1.3.1,2.6.1,3.7v25.4h6.5v-16.2c0-7.5,3.3-11.7,9.4-11.7s6.8,5,6.8,7.9v20h6.5v-20.6c0-8.5-4.6-13.3-12.8-13.3Z"></path><path class="st8" d="M-1015.3,571.7c3.1,0,5.6,1.2,7.6,3.7l.4.5,5.1-4.5-.4-.4c-3.2-3.4-7.5-5.2-12.7-5.2-10.1,0-17.2,7.1-17.2,17.4s7,17.4,17.1,17.4,9.5-1.8,12.5-5.3l.4-.4-4.8-4.6-.4.5c-1.8,2.5-4.3,3.7-7.7,3.7-5.9,0-10.2-4.8-10.2-11.3s4-11.3,10.2-11.3Z"></path><rect class="st8" x="-998.4" y="566.4" width="6.5" height="33.1"></rect><path class="st8" d="M-995.1,550c-2.5,0-4.5,2-4.5,4.5s1.9,4.5,4.5,4.5,4.5-1.9,4.5-4.5-2-4.5-4.5-4.5Z"></path><rect class="st8" x="-983.2" y="546.7" width="6.5" height="52.8"></rect><path class="st8" d="M-937.3,548.8c-15,0-25.9,10.9-25.9,26s10.9,26,25.9,26,25.9-10.9,25.9-26-10.9-26-25.9-26ZM-937.3,594.3c-10.6,0-18.6-8.4-18.6-19.5s8-19.5,18.5-19.5,18.7,8.4,18.7,19.5-8,19.5-18.6,19.5Z"></path><path class="st8" d="M-887.8,545.9c-7.9,0-11.9,4.7-11.9,13.8v6.7h-7v5.7h7v27.5h6.5v-27.5h7.8v-5.7h-7.8v-6.6c0-6.6,1.7-7.8,5.2-7.8s2.1.2,3.4.6l.7.2.9-5.9-.4-.2c-1.2-.7-3.1-.9-4.4-.9Z"></path><path class="st8" d="M-830.7,587.7c-3.4,4.3-8,6.5-13.6,6.5-10.2,0-17.9-8.4-17.9-19.5s7.9-19.5,17.9-19.5,8.9,2.1,11.7,5.7l.3.4,5.9-4.3-.4-.5c-3.7-5-10.1-7.8-17.6-7.8-14.4,0-25.2,11.2-25.2,26s10.8,26,25.2,26,14.4-2.9,18.8-8.7l.3-.4-5.2-4.3-.4.5Z"></path><path class="st8" d="M-798.8,571.2c-7.6-2.3-10-4.3-10-8.4s3.8-7.6,9.8-7.6,6.7,1.5,8.3,4.2l.4.6,5.7-4.9-.4-.4c-3.5-4-7.9-5.9-14-5.9-10,0-17.1,6-17.1,14.5s3.4,10.8,11.7,13.7c1,.4,2,.7,3,1,6.4,2.1,10,3.3,10,8.5s-5.1,7.8-10,7.8-7.9-1.9-9.8-5.1l-.3-.6-5.8,4.8.3.4c2.9,4.4,8.7,6.9,15.4,6.9,10.5,0,17.6-5.9,17.6-14.7s-4-11.7-14.7-14.8Z"></path><path class="st8" d="M-750.2,550.4v-.3h-6.3l-21.9,49.5h7.8l5-11.9h23.5l4.9,11.9h8l-20.9-49.2ZM-744.8,581.2h-18.1l9.3-21.9,8.8,21.9Z"></path></g></svg> 